<?xml version="1.0" encoding="utf-8"?>
<!-- Generator: Adobe Illustrator 24.1.1, SVG Export Plug-In . SVG Version: 6.00 Build 0)  -->
<svg version="1.1" id="Calque_1" xmlns="http://www.w3.org/2000/svg" xmlns:xlink="http://www.w3.org/1999/xlink" x="0px" y="0px"
	 viewBox="0 0 396.9 396.9" style="enable-background:new 0 0 396.9 396.9;" xml:space="preserve">
<style type="text/css">
	.st0{fill:#FFFFFF;}
</style>
<path class="st0" d="M17.2,15.3v364.6h364.6V15.3H17.2z M306.2,146.4c0.1,2.1,0.1,4.3,0.1,6.5c0,86.7-70.3,156.9-156.9,156.9
	c-30.9,0-59.6-8.9-83.9-24.3l0,0c47.4,7.1,80.9-23.1,80.9-23.1c-42.3-3.3-50.6-38.5-50.6-38.5c14.9,2.5,24.3-1,24.3-1
	c-47.6-11.1-43.5-54.7-43.5-54.7c11,6.6,23.8,7.1,23.8,7.1c-42-36.9-15.7-72.9-15.7-72.9c44,53.3,108.8,57,113,57.1
	c-0.9-4-1.4-8.2-1.4-12.5c0-30.4,24.7-55,55.1-55c15.9,0,30.1,6.7,40.2,17.4c2.8-0.8,5.5-1.6,8.1-2.5c15.6-5.2,26.7-11.1,26.7-11.1
	c-2.7,16.1-22.5,29.6-24,30.6c-0.1,0-0.1,0.1-0.1,0.1c0,0,0.1,0,0.1,0c15.4-1.5,31.2-8.1,31.2-8.1
	C328.7,128.4,309.3,144,306.2,146.4z"/>
</svg>
