<?xml version="1.0" encoding="utf-8"?>
<!-- Generator: Adobe Illustrator 24.1.1, SVG Export Plug-In . SVG Version: 6.00 Build 0)  -->
<svg version="1.1" id="Calque_1" xmlns="http://www.w3.org/2000/svg" xmlns:xlink="http://www.w3.org/1999/xlink" x="0px" y="0px"
	 viewBox="0 0 396.9 396.9" style="enable-background:new 0 0 396.9 396.9;" xml:space="preserve">
<style type="text/css">
	.st0{fill:#FFFFFF;}
</style>
<g>
	<path class="st0" d="M16,16.1v364.6h364.6V16.1H16z M228.5,213.7c-6.2,41-36.8,64.4-76.3,64.4c-44.4,0-80.4-36-80.4-80.4
		c0-44.4,36-80.4,80.4-80.4c21.5,0,40.3,7.7,54,21l-23.1,23.1c-7.8-7.9-18.5-12.1-30.9-12.1c-26.1,0-47.4,22.3-47.4,48.4
		c0,26.2,21.2,47.8,47.4,47.8c21.9,0,38.5-10.6,43.3-31.8h-43.3v-32.3h76.1c0.9,5.2,1.4,10.7,1.4,16.3
		C229.7,203.3,229.3,208.6,228.5,213.7L228.5,213.7z M325.1,203.7h-28.2v28.2h-20v-28.2h-28.2v-20h28.2v-28.2h20v28.2h28.2V203.7z
		 M325.1,203.7"/>
</g>
</svg>
