<?xml version="1.0" encoding="utf-8"?>
<!-- Generator: Adobe Illustrator 24.1.1, SVG Export Plug-In . SVG Version: 6.00 Build 0)  -->
<svg version="1.1" id="Calque_1" xmlns="http://www.w3.org/2000/svg" xmlns:xlink="http://www.w3.org/1999/xlink" x="0px" y="0px"
	 viewBox="0 0 396.9 396.9" style="enable-background:new 0 0 396.9 396.9;" xml:space="preserve">
<style type="text/css">
	.st0{fill:#FFFFFF;}
</style>
<path class="st0" d="M17.2,16.3v364.6h364.6V16.3H17.2z M129.1,317c0,4.6-3.8,8.4-8.4,8.4H85c-4.6,0-8.4-3.8-8.4-8.4V164.4
	c0-4.6,3.8-8.4,8.4-8.4h35.8c4.6,0,8.4,3.8,8.4,8.4V317z M102.8,132.7c-16.2,0.3-30.5-13.2-30.5-30.6c0-16.8,13.8-30.5,30.7-30.5
	c16.7,0,30.5,13.8,30.4,30.6C133.4,119.8,118.8,133,102.8,132.7z M326.7,209.6V322c0,1.9-1.6,3.5-3.5,3.5l-45.7,0
	c-1.9,0-3.5-1.6-3.5-3.5v-94.2c0-8.1-3.3-15.5-8.6-20.9c-5.4-5.4-12.9-8.7-21.2-8.6c-16.2,0.2-29.2,13.7-29.2,29.9V322
	c0,1.9-1.6,3.5-3.5,3.5l-45.6,0c-1.9,0-3.5-1.6-3.5-3.5V159.5c0-1.9,1.6-3.5,3.5-3.5h44.6c1.9,0,3.5,1.6,3.5,3.5v18.7
	c0,0,0.2,0,0.5,0.1c0.9-1.6,1.8-3.1,2.8-4.5c9.3-13.4,24.8-22.1,42.3-22.1h9.2C300.8,151.7,326.7,177.6,326.7,209.6L326.7,209.6z"/>
</svg>
